<svg width="14" height="26" fill="none" xmlns="http://www.w3.org/2000/svg"><path d="M12.65 9.965c.08-.171.148-.298.194-.378a6.34 6.34 0 00.722-2.947 6.231 6.231 0 00-1.9-4.577 6.428 6.428 0 00-9.123 0 6.264 6.264 0 00-1.89 4.569 6.225 6.225 0 001.74 4.397 6.29 6.29 0 004.25 2.049L3.458 18.63l2.588-.007-4.45 7.342L12.684 15.86H9.27l3.186-5.53a3.44 3.44 0 00.193-.365zM9.054 8.58a2.765 2.765 0 01-4.717-1.965 2.702 2.702 0 01.801-1.965 2.738 2.738 0 013.916 0 2.713 2.713 0 01.812 1.965 2.667 2.667 0 01-.812 1.963v.002z" fill="#fff"/></svg>