<svg data-name="Camada 1" xmlns="http://www.w3.org/2000/svg" viewBox="0 0 800 285"><path d="M207.63 176l16.5-16c4.91 4.38 11.05 8.07 20.35 8.07 5.61 0 8.25-1.76 8.25-5.09 0-10.53-42.11-6-42.11-39.48 0-17.72 15.44-28.43 35.44-28.43 17.55 0 27.55 8.43 33 15.8l-18.96 14.91c-2.81-2.81-8.08-7.19-15.27-7.19-4.21 0-6.67 1.75-6.67 4.56 0 11.58 42.46 4.91 42.46 38.25 0 18.77-16.49 30.35-37.54 30.35-17.55 0-30.01-8.42-35.45-15.75zM329.4 97.36H345V121h-15.6v33.87c0 8.07 5.44 10 11.41 10a48.06 48.06 0 004.91-.18v25.09a46.87 46.87 0 01-11.23 1.06c-21.76 0-34.39-10-34.39-37.38V121h-9V97.36h9V77.88h29.3zm81.42-2.29c29.65 0 50.53 20.36 50.53 48.26 0 27.72-21.41 48.42-50.53 48.42-29.3 0-50-20.35-50-48.07-.01-27.9 21.57-48.61 50-48.61zm0 70.89c12.1 0 21.23-9.47 21.23-22.63 0-13.51-9.3-22.46-21.23-22.46-12.11 0-20.71 9.3-20.71 22.81 0 13.32 8.78 22.32 20.71 22.32zm121.77-41.06a31.58 31.58 0 00-4.74-.35c-14.21 0-19 10.35-19 24.22v40.7H479.6V97.36h28.6v12.28c4.39-9 13-14.57 24.39-14.57zm98.79 64.57h-29.31v-54.92c0-8.24-4-13.16-11.05-13.16-6.84 0-11.23 4.74-11.23 13.16v54.92h-29.3V97.36h28.6v9.47c3.16-5.61 10.53-11.76 22.81-11.76 10.88 0 19 4.57 23.86 12.11 5.62-7.18 14.24-12.11 26.15-12.11 21.23 0 31.23 13.69 31.23 33.17v61.23h-29.31v-54.92c0-8.24-4.21-13.16-11.22-13.16-6.85 0-11.23 5.27-11.23 13.16zM182.75 128c.57-1.22 1.06-2.12 1.39-2.69a45.16 45.16 0 005.14-21 44.4 44.4 0 00-13.54-32.61 45.8 45.8 0 00-65 0 44.63 44.63 0 00-13.46 32.55 44.35 44.35 0 0012.4 31.33 44.81 44.81 0 0030.27 14.6l-22.68 39.56 18.44-.05L104 242l79-72h-24.33l22.7-39.4a23.29 23.29 0 001.38-2.6zm-25.61-9.87a19.7 19.7 0 01-33.61-14 19.25 19.25 0 015.71-14 19.51 19.51 0 0127.9 0 19.33 19.33 0 015.79 14 19 19 0 01-5.79 13.99z"/></svg>